<?xml version="1.0" encoding="UTF-8"?>
<svg xmlns="http://www.w3.org/2000/svg" xmlns:xlink="http://www.w3.org/1999/xlink" width="20pt" height="20pt" viewBox="0 0 20 20" version="1.1">
<g id="surface1">
<path style=" stroke:none;fill-rule:nonzero;fill:#98C5E9;fill-opacity:1;" d="M 10 1.667969 C 5.398438 1.667969 1.667969 5.398438 1.667969 10 C 1.667969 14.601563 5.398438 18.332031 10 18.332031 C 14.601563 18.332031 18.332031 14.601563 18.332031 10 C 18.332031 5.398438 14.601563 1.667969 10 1.667969 Z M 12.5 10.832031 L 10.832031 10.832031 L 10.832031 12.5 C 10.832031 12.957031 10.457031 13.332031 10 13.332031 C 9.542969 13.332031 9.167969 12.957031 9.167969 12.5 L 9.167969 10.832031 L 7.5 10.832031 C 7.042969 10.832031 6.667969 10.457031 6.667969 10 C 6.667969 9.542969 7.042969 9.167969 7.5 9.167969 L 9.167969 9.167969 L 9.167969 7.5 C 9.167969 7.042969 9.542969 6.667969 10 6.667969 C 10.457031 6.667969 10.832031 7.042969 10.832031 7.5 L 10.832031 9.167969 L 12.5 9.167969 C 12.957031 9.167969 13.332031 9.542969 13.332031 10 C 13.332031 10.457031 12.957031 10.832031 12.5 10.832031 Z "/>
</g>
</svg>
