<?xml version="1.0" encoding="UTF-8"?>
<svg xmlns="http://www.w3.org/2000/svg" xmlns:xlink="http://www.w3.org/1999/xlink" width="20pt" height="20pt" viewBox="0 0 20 20" version="1.1">
<g id="surface1">
<path style=" stroke:none;fill-rule:nonzero;fill:#98C5E9;fill-opacity:1;" d="M 9.867188 1.316406 C 7.078125 1.316406 5.921875 3.105469 5.921875 5.261719 C 5.921875 5.992188 6.269531 6.71875 6.269531 6.71875 C 6.128906 6.800781 5.898438 7.054688 5.957031 7.507813 C 6.066406 8.351563 6.429688 8.566406 6.664063 8.582031 C 6.753906 9.371094 7.597656 10.378906 7.894531 10.527344 L 7.894531 11.84375 C 7.238281 13.816406 1.972656 12.5 1.972656 17.105469 L 9.554688 17.105469 C 9.335938 16.484375 9.210938 15.824219 9.210938 15.132813 C 9.210938 12.804688 10.558594 10.796875 12.511719 9.828125 C 12.78125 9.453125 13.027344 8.988281 13.074219 8.582031 C 13.308594 8.566406 13.671875 8.351563 13.78125 7.507813 C 13.839844 7.054688 13.609375 6.800781 13.46875 6.71875 C 13.46875 6.71875 13.816406 6.0625 13.816406 5.261719 C 13.816406 3.667969 13.1875 2.300781 11.84375 2.300781 C 11.84375 2.300781 11.375 1.316406 9.867188 1.316406 Z M 15.132813 10.527344 C 12.585938 10.527344 10.527344 12.585938 10.527344 15.132813 C 10.527344 17.675781 12.585938 19.738281 15.132813 19.738281 C 17.675781 19.738281 19.738281 17.675781 19.738281 15.132813 C 19.738281 12.585938 17.675781 10.527344 15.132813 10.527344 Z M 15.132813 12.5 C 15.492188 12.5 15.789063 12.792969 15.789063 13.15625 L 15.789063 14.472656 L 17.105469 14.472656 C 17.46875 14.472656 17.761719 14.765625 17.761719 15.132813 C 17.761719 15.496094 17.46875 15.789063 17.105469 15.789063 L 15.789063 15.789063 L 15.789063 17.105469 C 15.789063 17.46875 15.492188 17.761719 15.132813 17.761719 C 14.769531 17.761719 14.472656 17.46875 14.472656 17.105469 L 14.472656 15.789063 L 13.15625 15.789063 C 12.796875 15.789063 12.5 15.496094 12.5 15.132813 C 12.5 14.765625 12.796875 14.472656 13.15625 14.472656 L 14.472656 14.472656 L 14.472656 13.15625 C 14.472656 12.792969 14.769531 12.5 15.132813 12.5 Z "/>
</g>
</svg>
