<?xml version="1.0" encoding="UTF-8"?>
<svg xmlns="http://www.w3.org/2000/svg" xmlns:xlink="http://www.w3.org/1999/xlink" width="20pt" height="20pt" viewBox="0 0 20 20" version="1.1">
<g id="surface1">
<path style=" stroke:none;fill-rule:nonzero;fill:#98C5E9;fill-opacity:1;" d="M 15.832031 2.5 L 4.167969 2.5 C 3.246094 2.5 2.5 3.246094 2.5 4.167969 L 2.5 15.832031 C 2.5 16.753906 3.246094 17.5 4.167969 17.5 L 15.832031 17.5 C 16.753906 17.5 17.5 16.753906 17.5 15.832031 L 17.5 4.167969 C 17.5 3.246094 16.753906 2.5 15.832031 2.5 Z M 16.421875 10.589844 L 13.671875 13.339844 C 13.507813 13.503906 13.296875 13.582031 13.082031 13.582031 C 12.871094 13.582031 12.65625 13.503906 12.492188 13.339844 C 12.167969 13.015625 12.167969 12.488281 12.492188 12.160156 L 13.820313 10.832031 L 7.5 10.832031 C 7.039063 10.832031 6.667969 10.460938 6.667969 10 C 6.667969 9.539063 7.039063 9.167969 7.5 9.167969 L 13.820313 9.167969 L 12.492188 7.839844 C 12.167969 7.511719 12.167969 6.984375 12.492188 6.660156 C 12.820313 6.335938 13.347656 6.335938 13.671875 6.660156 L 16.421875 9.410156 C 16.746094 9.738281 16.746094 10.261719 16.421875 10.589844 Z "/>
</g>
</svg>
