<?xml version="1.0" encoding="UTF-8"?>
<svg xmlns="http://www.w3.org/2000/svg" xmlns:xlink="http://www.w3.org/1999/xlink" width="20pt" height="20pt" viewBox="0 0 20 20" version="1.1">
<g id="surface1">
<path style=" stroke:none;fill-rule:nonzero;fill:#98C5E9;fill-opacity:1;" d="M 6.816406 0.757813 C 5.5625 0.757813 4.546875 1.777344 4.546875 3.03125 C 4.546875 4.285156 5.5625 5.304688 6.816406 5.304688 C 8.074219 5.304688 9.089844 4.285156 9.089844 3.03125 C 9.089844 1.777344 8.074219 0.757813 6.816406 0.757813 Z M 6.816406 5.304688 C 6.589844 5.304688 6.359375 5.296875 6.132813 5.375 C 6.585938 5.980469 6.816406 6.742188 6.816406 7.574219 C 6.816406 7.878906 6.746094 8.171875 6.746094 8.476563 C 7.355469 7.566406 8.332031 6.96875 9.46875 6.816406 C 8.941406 5.910156 7.953125 5.304688 6.816406 5.304688 Z M 12.878906 0.757813 C 11.625 0.757813 10.605469 1.777344 10.605469 3.03125 C 10.605469 4.285156 11.625 5.304688 12.878906 5.304688 C 14.132813 5.304688 15.152344 4.285156 15.152344 3.03125 C 15.152344 1.777344 14.132813 0.757813 12.878906 0.757813 Z M 12.878906 5.304688 C 11.742188 5.304688 10.757813 5.910156 10.226563 6.816406 C 11.363281 6.96875 12.34375 7.566406 12.949219 8.476563 C 12.949219 8.171875 12.878906 7.878906 12.878906 7.574219 C 12.878906 6.742188 13.109375 5.980469 13.566406 5.375 C 13.335938 5.296875 13.105469 5.304688 12.878906 5.304688 Z M 3.03125 5.304688 C 1.777344 5.304688 0.757813 6.320313 0.757813 7.574219 C 0.757813 8.832031 1.777344 9.847656 3.03125 9.847656 C 4.285156 9.847656 5.304688 8.832031 5.304688 7.574219 C 5.304688 6.320313 4.285156 5.304688 3.03125 5.304688 Z M 3.03125 9.847656 C 1.363281 9.847656 0 11.210938 0 12.878906 L 0 14.535156 C 0 14.535156 0.757813 15.152344 3.03125 15.152344 C 5.304688 15.152344 6.0625 14.535156 6.0625 14.535156 L 6.0625 12.878906 C 6.0625 11.210938 4.695313 9.847656 3.03125 9.847656 Z M 16.667969 5.304688 C 15.410156 5.304688 14.394531 6.320313 14.394531 7.574219 C 14.394531 8.832031 15.410156 9.847656 16.667969 9.847656 C 17.921875 9.847656 18.9375 8.832031 18.9375 7.574219 C 18.9375 6.320313 17.921875 5.304688 16.667969 5.304688 Z M 16.667969 9.847656 C 15 9.847656 13.636719 11.210938 13.636719 12.878906 L 13.636719 14.535156 C 13.636719 14.535156 14.394531 15.152344 16.667969 15.152344 C 18.9375 15.152344 19.695313 14.535156 19.695313 14.535156 L 19.695313 12.878906 C 19.695313 11.210938 18.332031 9.847656 16.667969 9.847656 Z M 9.847656 8.332031 C 8.59375 8.332031 7.574219 9.351563 7.574219 10.605469 C 7.574219 11.859375 8.59375 12.878906 9.847656 12.878906 C 11.101563 12.878906 12.121094 11.859375 12.121094 10.605469 C 12.121094 9.351563 11.101563 8.332031 9.847656 8.332031 Z M 9.847656 12.878906 C 8.183594 12.878906 6.816406 14.242188 6.816406 15.910156 L 6.816406 17.566406 C 6.816406 17.566406 7.574219 18.183594 9.847656 18.183594 C 12.121094 18.183594 12.878906 17.566406 12.878906 17.566406 L 12.878906 15.910156 C 12.878906 14.242188 11.515625 12.878906 9.847656 12.878906 Z "/>
</g>
</svg>
