<?xml version="1.0" encoding="UTF-8"?>
<svg xmlns="http://www.w3.org/2000/svg" xmlns:xlink="http://www.w3.org/1999/xlink" width="26pt" height="26pt" viewBox="0 0 26 26" version="1.1">
<g id="surface1">
<path style=" stroke:none;fill-rule:nonzero;fill:#98C5E9;fill-opacity:1;" d="M 12.804688 0.183594 C 5.835938 0.183594 0.183594 5.835938 0.183594 12.804688 C 0.183594 19.769531 5.835938 25.421875 12.804688 25.421875 C 19.769531 25.421875 25.421875 19.769531 25.421875 12.804688 C 25.421875 5.835938 19.769531 0.183594 12.804688 0.183594 Z M 9.539063 2.675781 L 9.015625 3.632813 L 12.804688 5.261719 L 16.589844 3.632813 L 16.066406 2.675781 C 18.246094 3.378906 20.105469 4.769531 21.421875 6.585938 L 20.34375 6.371094 L 19.972656 10.464844 L 22.683594 13.574219 L 23.453125 12.742188 C 23.453125 12.761719 23.453125 12.785156 23.453125 12.804688 C 23.453125 15.167969 22.671875 17.34375 21.359375 19.113281 L 21.234375 18.003906 L 17.234375 18.898438 L 15.140625 22.4375 L 16.125 22.898438 C 15.082031 23.238281 13.960938 23.453125 12.804688 23.453125 C 11.644531 23.453125 10.527344 23.238281 9.480469 22.898438 L 10.464844 22.4375 L 8.371094 18.898438 L 4.371094 18.003906 L 4.246094 19.113281 C 2.933594 17.34375 2.15625 15.167969 2.15625 12.804688 C 2.15625 12.785156 2.15625 12.761719 2.15625 12.742188 L 2.921875 13.574219 L 5.632813 10.464844 L 5.261719 6.371094 L 4.1875 6.585938 C 5.5 4.769531 7.359375 3.378906 9.539063 2.675781 Z M 12.804688 8.585938 L 8.371094 11.816406 L 10.0625 17.019531 L 15.542969 17.019531 L 17.234375 11.816406 Z "/>
</g>
</svg>
