<?xml version="1.0" encoding="UTF-8"?>
<svg xmlns="http://www.w3.org/2000/svg" xmlns:xlink="http://www.w3.org/1999/xlink" width="20pt" height="20pt" viewBox="0 0 20 20" version="1.1">
<g id="surface1">
<path style=" stroke:none;fill-rule:nonzero;fill:#98C5E9;fill-opacity:1;" d="M 9.847656 0.140625 C 4.488281 0.140625 0.140625 4.488281 0.140625 9.847656 C 0.140625 15.207031 4.488281 19.554688 9.847656 19.554688 C 15.207031 19.554688 19.554688 15.207031 19.554688 9.847656 C 19.554688 4.488281 15.207031 0.140625 9.847656 0.140625 Z M 7.339844 2.058594 L 6.9375 2.792969 L 9.847656 4.046875 L 12.761719 2.792969 L 12.359375 2.058594 C 14.035156 2.597656 15.464844 3.667969 16.476563 5.066406 L 15.648438 4.902344 L 15.363281 8.050781 L 17.449219 10.441406 L 18.039063 9.800781 C 18.039063 9.816406 18.039063 9.832031 18.039063 9.847656 C 18.039063 11.667969 17.4375 13.339844 16.429688 14.703125 L 16.335938 13.847656 L 13.257813 14.535156 L 11.648438 17.257813 L 12.40625 17.613281 C 11.601563 17.878906 10.738281 18.039063 9.847656 18.039063 C 8.957031 18.039063 8.097656 17.878906 7.292969 17.613281 L 8.050781 17.257813 L 6.4375 14.535156 L 3.363281 13.847656 L 3.265625 14.703125 C 2.257813 13.339844 1.65625 11.667969 1.65625 9.847656 C 1.65625 9.832031 1.65625 9.816406 1.65625 9.800781 L 2.25 10.441406 L 4.332031 8.050781 L 4.046875 4.902344 L 3.21875 5.066406 C 4.230469 3.667969 5.660156 2.597656 7.339844 2.058594 Z M 9.847656 6.605469 L 6.4375 9.089844 L 7.742188 13.09375 L 11.957031 13.09375 L 13.257813 9.089844 Z "/>
</g>
</svg>
